<svg width="70" height="40" viewBox="0 0 70 40" fill="none" xmlns="http://www.w3.org/2000/svg">
<g filter="url(#filter0_d_4684_8864)">
<g clip-path="url(#clip0_4684_8864)">
<rect x="5" y="4" width="60" height="30" rx="4" fill="white"/>
<rect x="5" y="4" width="60" height="30" rx="5" fill="white"/>
<path d="M26.0758 29.9518V28.4918C26.0758 27.9333 25.7396 27.5676 25.1623 27.5676C24.8737 27.5676 24.5598 27.664 24.344 27.9815C24.1759 27.715 23.9349 27.5676 23.5734 27.5676C23.3324 27.5676 23.0914 27.6413 22.9009 27.9078V27.6158H22.3965V29.9518H22.9009V28.6619C22.9009 28.248 23.1167 28.0524 23.4529 28.0524C23.7892 28.0524 23.9573 28.2707 23.9573 28.6619V29.9518H24.4617V28.6619C24.4617 28.248 24.7027 28.0524 25.0138 28.0524C25.35 28.0524 25.5182 28.2707 25.5182 28.6619V29.9518H26.0758ZM33.5578 27.6158H32.7396V26.9098H32.2352V27.6158H31.7784V28.0779H32.2352V29.1495C32.2352 29.6853 32.4509 30 33.0282 30C33.244 30 33.485 29.9263 33.6531 29.8299L33.5074 29.3905C33.3617 29.4869 33.1935 29.5124 33.073 29.5124C32.832 29.5124 32.7368 29.365 32.7368 29.124V28.0779H33.555V27.6158H33.5578ZM37.8396 27.5647C37.551 27.5647 37.3577 27.7121 37.2372 27.9049V27.6129H36.7328V29.949H37.2372V28.6335C37.2372 28.2451 37.4053 28.024 37.7191 28.024C37.8144 28.024 37.9349 28.0495 38.033 28.0722L38.1787 27.5846C38.0778 27.5647 37.9349 27.5647 37.8396 27.5647ZM31.3693 27.8085C31.1283 27.6384 30.792 27.5647 30.4305 27.5647C29.8532 27.5647 29.4693 27.8567 29.4693 28.3188C29.4693 28.7073 29.758 28.9284 30.2624 28.9993L30.5034 29.0248C30.7668 29.073 30.9125 29.1467 30.9125 29.2686C30.9125 29.4387 30.7191 29.5606 30.3829 29.5606C30.0466 29.5606 29.7804 29.4387 29.6123 29.3168L29.3713 29.7052C29.6347 29.9008 29.9962 29.9972 30.3577 29.9972C31.0302 29.9972 31.4169 29.6797 31.4169 29.2431C31.4169 28.8292 31.103 28.6109 30.6239 28.5371L30.3829 28.5116C30.1671 28.4861 29.999 28.4379 29.999 28.2933C29.999 28.1232 30.1671 28.0268 30.4333 28.0268C30.7219 28.0268 31.0106 28.1487 31.1563 28.2225L31.3693 27.8085ZM44.7892 27.5647C44.5006 27.5647 44.3072 27.7121 44.1867 27.9049V27.6129H43.6823V29.949H44.1867V28.6335C44.1867 28.2451 44.3548 28.024 44.6687 28.024C44.764 28.024 44.8845 28.0495 44.9826 28.0722L45.1283 27.5902C45.0302 27.5647 44.8873 27.5647 44.7892 27.5647ZM38.344 28.7838C38.344 29.4897 38.826 30 39.5714 30C39.9077 30 40.1487 29.9263 40.3897 29.7335L40.1487 29.3196C39.9553 29.467 39.7648 29.5379 39.5462 29.5379C39.1371 29.5379 38.8484 29.2459 38.8484 28.7838C38.8484 28.3444 39.1371 28.0524 39.5462 28.0297C39.762 28.0297 39.9553 28.1034 40.1487 28.248L40.3897 27.8341C40.1487 27.6384 39.9077 27.5676 39.5714 27.5676C38.826 27.5647 38.344 28.0779 38.344 28.7838ZM43.0098 28.7838V27.6158H42.5054V27.9078C42.3372 27.6895 42.0962 27.5676 41.7824 27.5676C41.1323 27.5676 40.6279 28.0779 40.6279 28.7838C40.6279 29.4897 41.1323 30 41.7824 30C42.1187 30 42.3597 29.8781 42.5054 29.6598V29.9518H43.0098V28.7838ZM41.1575 28.7838C41.1575 28.3699 41.4209 28.0297 41.8553 28.0297C42.2644 28.0297 42.553 28.3472 42.553 28.7838C42.553 29.1977 42.2644 29.5379 41.8553 29.5379C41.4237 29.5124 41.1575 29.1949 41.1575 28.7838ZM35.1215 27.5647C34.4489 27.5647 33.9669 28.0524 33.9669 28.781C33.9669 29.5124 34.4489 29.9972 35.1467 29.9972C35.483 29.9972 35.8192 29.9008 36.0854 29.6797L35.8444 29.314C35.6511 29.4614 35.4101 29.5578 35.1719 29.5578C34.8581 29.5578 34.547 29.4103 34.4741 28.9993H36.1807C36.1807 28.9255 36.1807 28.8774 36.1807 28.8036C36.2031 28.0524 35.7688 27.5647 35.1215 27.5647ZM35.1215 28.0042C35.4353 28.0042 35.6511 28.1998 35.6987 28.5627H34.4966C34.5442 28.248 34.76 28.0042 35.1215 28.0042ZM47.6531 28.7838V26.6915H47.1487V27.9078C46.9805 27.6895 46.7396 27.5676 46.4257 27.5676C45.7756 27.5676 45.2712 28.0779 45.2712 28.7838C45.2712 29.4897 45.7756 30 46.4257 30C46.762 30 47.003 29.8781 47.1487 29.6598V29.9518H47.6531V28.7838ZM45.8008 28.7838C45.8008 28.3699 46.0642 28.0297 46.4986 28.0297C46.9077 28.0297 47.1963 28.3472 47.1963 28.7838C47.1963 29.1977 46.9077 29.5379 46.4986 29.5379C46.0642 29.5124 45.8008 29.1949 45.8008 28.7838ZM28.9145 28.7838V27.6158H28.4101V27.9078C28.242 27.6895 28.001 27.5676 27.6871 27.5676C27.037 27.5676 26.5326 28.0779 26.5326 28.7838C26.5326 29.4897 27.037 30 27.6871 30C28.0234 30 28.2644 29.8781 28.4101 29.6598V29.9518H28.9145V28.7838ZM27.0398 28.7838C27.0398 28.3699 27.3032 28.0297 27.7376 28.0297C28.1467 28.0297 28.4353 28.3472 28.4353 28.7838C28.4353 29.1977 28.1467 29.5379 27.7376 29.5379C27.3032 29.5124 27.0398 29.1949 27.0398 28.7838Z" fill="black"/>
<path d="M38.7765 9.87402H31.1992V23.6467H38.7765V9.87402Z" fill="#FF5A00"/>
<path d="M31.7046 16.7603C31.7046 13.9621 33.0048 11.4786 35 9.87397C33.5316 8.70593 31.6793 8 29.6589 8C24.8727 8 21 11.918 21 16.7603C21 21.6026 24.8727 25.5206 29.6589 25.5206C31.6793 25.5206 33.5316 24.8147 35 23.6467C33.002 22.0647 31.7046 19.5585 31.7046 16.7603Z" fill="#EB001B"/>
<path d="M49 16.7603C49 21.6026 45.1273 25.5206 40.3411 25.5206C38.3207 25.5206 36.4684 24.8147 35 23.6467C37.0204 22.0392 38.2954 19.5585 38.2954 16.7603C38.2954 13.9621 36.9952 11.4786 35 9.87397C36.4656 8.70593 38.3179 8 40.3383 8C45.1273 8 49 11.9436 49 16.7603Z" fill="#F79E1B"/>
</g>
<rect x="4.5" y="3.5" width="61" height="31" rx="4.5" stroke="#E8EEF3"/>
</g>
<defs>
<filter id="filter0_d_4684_8864" x="0" y="0" width="70" height="40" filterUnits="userSpaceOnUse" color-interpolation-filters="sRGB">
<feFlood flood-opacity="0" result="BackgroundImageFix"/>
<feColorMatrix in="SourceAlpha" type="matrix" values="0 0 0 0 0 0 0 0 0 0 0 0 0 0 0 0 0 0 127 0" result="hardAlpha"/>
<feOffset dy="1"/>
<feGaussianBlur stdDeviation="2"/>
<feComposite in2="hardAlpha" operator="out"/>
<feColorMatrix type="matrix" values="0 0 0 0 0.027451 0 0 0 0 0.231373 0 0 0 0 0.631373 0 0 0 0.1 0"/>
<feBlend mode="normal" in2="BackgroundImageFix" result="effect1_dropShadow_4684_8864"/>
<feBlend mode="normal" in="SourceGraphic" in2="effect1_dropShadow_4684_8864" result="shape"/>
</filter>
<clipPath id="clip0_4684_8864">
<rect x="5" y="4" width="60" height="30" rx="4" fill="white"/>
</clipPath>
</defs>
</svg>
