<svg width="70" height="40" viewBox="0 0 70 40" fill="none" xmlns="http://www.w3.org/2000/svg">
<g filter="url(#filter0_d_4684_8870)">
<g clip-path="url(#clip0_4684_8870)">
<rect x="5" y="4" width="60" height="30" rx="4" fill="white"/>
<rect x="5" y="4" width="60" height="30" rx="5" fill="white"/>
<path fill-rule="evenodd" clip-rule="evenodd" d="M19.4673 13.5186C19.8368 13.5164 20.9349 13.4182 21.4001 14.977C21.7134 16.027 22.2125 17.7469 22.8974 20.1368H23.1764C23.9109 17.6172 24.4154 15.8973 24.6901 14.977C25.1601 13.402 26.3351 13.5187 26.8051 13.5187L30.4312 13.5187V24.7186H26.7354V18.1183H26.4875L24.4272 24.7186H21.6466L19.5863 18.1134H19.3385V24.7186H15.6426V13.5187L19.4673 13.5186ZM35.7385 13.5187V20.1239H36.0333L38.5394 14.6925C39.0259 13.6116 40.0628 13.5187 40.0628 13.5187H43.6393V24.7187H39.8662V18.1134H39.5714L37.1144 23.5449C36.6279 24.6208 35.5419 24.7187 35.5419 24.7187H31.9654V13.5187H35.7385ZM56.6807 18.841C56.1544 20.3218 54.5016 21.3824 52.6717 21.3824H48.7149V24.7187H45.1269V18.841H56.6807Z" fill="#0F754E"/>
<path fill-rule="evenodd" clip-rule="evenodd" d="M52.8454 13.5182H44.9395C45.1276 16.0117 47.2903 18.1463 49.5291 18.1463H56.9307C57.3578 16.0739 55.8874 13.5182 52.8454 13.5182Z" fill="url(#paint0_linear_4684_8870)"/>
</g>
<rect x="4.5" y="3.5" width="61" height="31" rx="4.5" stroke="#E8EEF3"/>
</g>
<defs>
<filter id="filter0_d_4684_8870" x="0" y="0" width="70" height="40" filterUnits="userSpaceOnUse" color-interpolation-filters="sRGB">
<feFlood flood-opacity="0" result="BackgroundImageFix"/>
<feColorMatrix in="SourceAlpha" type="matrix" values="0 0 0 0 0 0 0 0 0 0 0 0 0 0 0 0 0 0 127 0" result="hardAlpha"/>
<feOffset dy="1"/>
<feGaussianBlur stdDeviation="2"/>
<feComposite in2="hardAlpha" operator="out"/>
<feColorMatrix type="matrix" values="0 0 0 0 0.027451 0 0 0 0 0.231373 0 0 0 0 0.631373 0 0 0 0.1 0"/>
<feBlend mode="normal" in2="BackgroundImageFix" result="effect1_dropShadow_4684_8870"/>
<feBlend mode="normal" in="SourceGraphic" in2="effect1_dropShadow_4684_8870" result="shape"/>
</filter>
<linearGradient id="paint0_linear_4684_8870" x1="57.0033" y1="16.4295" x2="44.9395" y2="16.4295" gradientUnits="userSpaceOnUse">
<stop stop-color="#1F5CD7"/>
<stop offset="1" stop-color="#02AEFF"/>
</linearGradient>
<clipPath id="clip0_4684_8870">
<rect x="5" y="4" width="60" height="30" rx="4" fill="white"/>
</clipPath>
</defs>
</svg>
