<svg width="70" height="40" viewBox="0 0 70 40" fill="none" xmlns="http://www.w3.org/2000/svg">
<g filter="url(#filter0_d_4684_8857)">
<g clip-path="url(#clip0_4684_8857)">
<rect x="5" y="4" width="60" height="30" rx="4" fill="white"/>
<rect x="5" y="4" width="60" height="30" rx="5" fill="white"/>
<path d="M32.0663 25.798H28.502L30.7313 12.2456H34.2954L32.0663 25.798Z" fill="#00579F"/>
<path d="M44.9869 12.577C44.2838 12.3028 43.1688 12 41.79 12C38.2701 12 35.7914 13.8453 35.7762 16.4836C35.747 18.4301 37.5509 19.5113 38.9 20.1603C40.279 20.8235 40.7478 21.2564 40.7478 21.8475C40.7338 22.7554 39.6335 23.1739 38.6073 23.1739C37.1843 23.1739 36.4218 22.9582 35.263 22.4531L34.7937 22.2365L34.2949 25.2787C35.1309 25.6532 36.6711 25.9854 38.2701 26C42.01 26 44.4448 24.1832 44.4737 21.3717C44.4879 19.829 43.5354 18.6468 41.4818 17.6809C40.2352 17.0608 39.4717 16.6427 39.4717 16.0082C39.4863 15.4314 40.1175 14.8406 41.5247 14.8406C42.6834 14.8117 43.5348 15.0855 44.1798 15.3595L44.5021 15.5035L44.9869 12.577Z" fill="#00579F"/>
<path d="M49.7255 20.9969C50.019 20.2183 51.1485 17.205 51.1485 17.205C51.1337 17.2339 51.4415 16.4121 51.6175 15.9075L51.8666 17.0753C51.8666 17.0753 52.5416 20.3193 52.6881 20.9969C52.1311 20.9969 50.4295 20.9969 49.7255 20.9969ZM54.1252 12.2456H51.3682C50.518 12.2456 49.8721 12.4905 49.5053 13.3701L44.2109 25.7978H47.9509C47.9509 25.7978 48.5666 24.1251 48.6989 23.7649C49.1092 23.7649 52.7474 23.7649 53.2752 23.7649C53.3775 24.2407 53.7005 25.7978 53.7005 25.7978H57.0007L54.1252 12.2456Z" fill="#00579F"/>
<path d="M25.5246 12.2456L22.0339 21.487L21.6525 19.6128C21.0072 17.4501 18.9832 15.1004 16.7246 13.9321L19.9219 25.7836H23.6911L29.2935 12.2456H25.5246Z" fill="#00579F"/>
<path d="M18.7933 12.2456H13.0587L13 12.5194C17.4734 13.6441 20.436 16.355 21.6532 19.6133L20.4066 13.3848C20.2013 12.5192 19.5706 12.2742 18.7933 12.2456Z" fill="#FAA61A"/>
</g>
<rect x="4.5" y="3.5" width="61" height="31" rx="4.5" stroke="#E8EEF3"/>
</g>
<defs>
<filter id="filter0_d_4684_8857" x="0" y="0" width="70" height="40" filterUnits="userSpaceOnUse" color-interpolation-filters="sRGB">
<feFlood flood-opacity="0" result="BackgroundImageFix"/>
<feColorMatrix in="SourceAlpha" type="matrix" values="0 0 0 0 0 0 0 0 0 0 0 0 0 0 0 0 0 0 127 0" result="hardAlpha"/>
<feOffset dy="1"/>
<feGaussianBlur stdDeviation="2"/>
<feComposite in2="hardAlpha" operator="out"/>
<feColorMatrix type="matrix" values="0 0 0 0 0.027451 0 0 0 0 0.231373 0 0 0 0 0.631373 0 0 0 0.1 0"/>
<feBlend mode="normal" in2="BackgroundImageFix" result="effect1_dropShadow_4684_8857"/>
<feBlend mode="normal" in="SourceGraphic" in2="effect1_dropShadow_4684_8857" result="shape"/>
</filter>
<clipPath id="clip0_4684_8857">
<rect x="5" y="4" width="60" height="30" rx="4" fill="white"/>
</clipPath>
</defs>
</svg>
